<mxfile host="app.diagrams.net" agent="Mozilla/5.0 (Macintosh; Intel Mac OS X 10_15_7) AppleWebKit/605.1.15 (KHTML, like Gecko) Version/18.3.1 Safari/605.1.15" version="26.2.4">
  <diagram name="Page-1" id="cgNLpoCMRLJCODOj_hEC">
    <mxGraphModel dx="1546" dy="481" grid="1" gridSize="10" guides="1" tooltips="1" connect="1" arrows="1" fold="1" page="0" pageScale="1" pageWidth="850" pageHeight="1100" math="0" shadow="0">
      <root>
        <mxCell id="0" />
        <mxCell id="1" parent="0" />
        <mxCell id="pWg3rEq_nWjjUZhZII7G-1" value="CPU - processing of tasks" style="whiteSpace=wrap;html=1;" vertex="1" parent="1">
          <mxGeometry x="-520" y="110" width="120" height="60" as="geometry" />
        </mxCell>
        <mxCell id="pWg3rEq_nWjjUZhZII7G-3" value="GPU - Graphical Processing Unit -&amp;nbsp;" style="whiteSpace=wrap;html=1;" vertex="1" parent="1">
          <mxGeometry x="-330" y="90" width="120" height="60" as="geometry" />
        </mxCell>
      </root>
    </mxGraphModel>
  </diagram>
</mxfile>
